<svg width="277" height="411" viewBox="0 0 277 411" fill="none" xmlns="http://www.w3.org/2000/svg">
<path d="M276.219 25.971C276.219 11.68 264.484 0 250.124 0H164.203C149.845 0 129.826 8.24502 119.655 18.368L18.4547 119.093C8.33013 129.17 0 149.141 0 163.432V248.949C0 263.241 11.7351 274.921 26.0936 274.921H97.0127C111.371 274.921 123.106 286.601 123.106 300.892V384.761C123.106 399.052 134.841 410.732 149.2 410.732H250.124C264.484 410.732 276.219 399.052 276.219 384.761V284.311C276.219 270.02 264.484 258.339 250.124 258.339H180.863C166.504 258.339 163.053 250.095 173.224 239.972L257.764 155.828C267.888 145.751 276.219 125.78 276.219 111.489V25.971Z" fill="url(#paint0_radial_15469_70309)"/>
<defs>
<radialGradient id="paint0_radial_15469_70309" cx="0" cy="0" r="1" gradientUnits="userSpaceOnUse" gradientTransform="translate(276.311 -1.87773) scale(167.747 166.959)">
<stop stop-color="#44D9DE"/>
<stop offset="0.3" stop-color="#43CFE2"/>
<stop offset="0.78" stop-color="#40B6EE"/>
<stop offset="1" stop-color="#3FA9F5"/>
</radialGradient>
</defs>
</svg>
