<svg width="1907" height="425" viewBox="0 0 1907 425" fill="none" xmlns="http://www.w3.org/2000/svg">
<path d="M276.219 29.8636C276.219 15.5726 264.484 3.89258 250.124 3.89258H164.203C149.845 3.89258 129.826 12.1376 119.655 22.2606L18.4547 122.986C8.33013 133.063 0 153.034 0 167.325V252.842C0 267.134 11.7351 278.814 26.0936 278.814H97.0127C111.371 278.814 123.106 290.494 123.106 304.785V388.654C123.106 402.945 134.841 414.625 149.2 414.625H250.124C264.484 414.625 276.219 402.945 276.219 388.654V288.204C276.219 273.913 264.484 262.232 250.124 262.232H180.863C166.504 262.232 163.053 253.988 173.224 243.865L257.764 159.721C267.888 149.644 276.219 129.673 276.219 115.382V29.8636Z" fill="url(#paint0_radial_15468_57729)"/>
<path d="M458.371 2.51953H544.892V340.514H749.961V414.58H458.417V2.51953H458.371Z" fill="white"/>
<path d="M861.009 0V73.516H779.828V0H861.009ZM861.009 109.84V414.579H779.828V109.84H861.009Z" fill="white"/>
<path d="M1182.65 414.579H1086.01L1012.7 284.31L979.56 318.71V414.625H900.91V3.89258H979.56V225.863L1079.29 111.26H1178.46L1071.46 227.833L1182.69 414.579H1182.65Z" fill="white"/>
<path d="M1383.76 371.523C1383.02 372.439 1381.13 375.233 1378.15 379.905C1375.16 384.577 1371.61 388.654 1367.47 392.227C1354.9 403.403 1342.8 411.052 1331.11 415.129C1319.42 419.206 1305.71 421.267 1289.97 421.267C1244.64 421.267 1214.13 405.052 1198.39 372.622C1189.59 354.712 1185.18 328.375 1185.18 293.517V109.84H1267.19V293.517C1267.19 310.831 1269.26 323.886 1273.36 332.635C1280.67 348.117 1294.99 355.858 1316.34 355.858C1343.68 355.858 1362.41 344.864 1372.53 322.878C1377.78 310.969 1380.4 295.212 1380.4 275.653V109.886H1461.58V414.625H1383.76V371.569V371.523Z" fill="white"/>
<path d="M1583.39 0V73.516H1502.22V0H1583.39ZM1583.39 109.84V414.579H1502.22V109.84H1583.39Z" fill="white"/>
<path d="M1906.79 3.06934V414.579H1828.97V372.347C1817.56 390.44 1804.53 403.586 1789.95 411.785C1775.36 419.984 1757.17 424.107 1735.45 424.107C1699.69 424.107 1669.6 409.724 1645.16 380.913C1620.72 352.102 1608.52 315.183 1608.52 270.065C1608.52 218.077 1620.54 177.173 1644.61 147.354C1668.68 117.535 1700.85 102.603 1741.12 102.603C1759.66 102.603 1776.14 106.633 1790.54 114.787C1804.95 122.894 1816.68 134.116 1825.65 148.453V3.06934H1906.83H1906.79ZM1691.09 264.202C1691.09 292.326 1696.71 314.816 1707.93 331.581C1718.98 348.529 1735.82 357.003 1758.51 357.003C1781.19 357.003 1798.42 348.62 1810.19 331.856C1821.98 315.091 1827.91 293.38 1827.91 266.721C1827.91 229.436 1818.48 202.778 1799.56 186.746C1787.97 177.035 1774.48 172.226 1759.11 172.226C1735.68 172.226 1718.52 181.02 1707.57 198.655C1696.61 216.244 1691.13 238.139 1691.13 264.202H1691.09Z" fill="white"/>
<defs>
<radialGradient id="paint0_radial_15468_57729" cx="0" cy="0" r="1" gradientUnits="userSpaceOnUse" gradientTransform="translate(276.311 2.01485) scale(167.747 166.959)">
<stop stop-color="#44D9DE"/>
<stop offset="0.3" stop-color="#43CFE2"/>
<stop offset="0.78" stop-color="#40B6EE"/>
<stop offset="1" stop-color="#3FA9F5"/>
</radialGradient>
</defs>
</svg>
