<svg xmlns="http://www.w3.org/2000/svg" viewBox="0 0 200 200" width="200" height="200">
<rect width="200" height="200" rx="20" fill="#00A78E"/>
<g transform="translate(100,95) scale(0.45)" fill="white">
<path d="M0-120 L15-60 L50-90 L40-30 L80-50 L55 0 L90 10 L55 30 L80 60 L40 40 L50 100 L15 70 L0 130 L-15 70 L-50 100 L-40 40 L-80 60 L-55 30 L-90 10 L-55 0 L-80-50 L-40-30 L-50-90 L-15-60Z"/>
<circle cx="0" cy="-120" r="14"/>
<circle cx="50" cy="-90" r="10"/>
<circle cx="-50" cy="-90" r="10"/>
<circle cx="80" cy="-50" r="10"/>
<circle cx="-80" cy="-50" r="10"/>
<circle cx="37" cy="-75" r="8"/>
<circle cx="-37" cy="-75" r="8"/>
<circle cx="68" cy="-65" r="8"/>
<circle cx="-68" cy="-65" r="8"/>
</g>
</svg>