        <svg height="40" style="width:auto;" viewBox="0 0 533 177" fill="none" xmlns="http://www.w3.org/2000/svg">
<path d="M216.959 78.6696C211.295 78.6696 206.423 77.4747 202.343 75.0856C198.287 72.6723 195.166 69.3272 192.982 65.0501C190.822 60.7736 189.742 55.8512 189.742 50.2841C189.742 44.6452 190.834 39.6992 193.018 35.4462C195.227 31.1692 198.359 27.836 202.414 25.4467C206.471 23.0334 211.295 21.8268 216.887 21.8268C221.711 21.8268 225.935 22.6989 229.559 24.4432C233.183 26.1874 236.051 28.6365 238.163 31.7904C240.275 34.9444 241.439 38.6479 241.656 42.9009H227.183C226.775 40.1532 225.695 37.943 223.943 36.2705C222.215 34.5741 219.947 33.7258 217.139 33.7258C214.763 33.7258 212.687 34.371 210.911 35.6612C209.159 36.9276 207.791 38.7793 206.807 41.2165C205.823 43.6536 205.331 46.6044 205.331 50.069C205.331 53.5815 205.811 56.5684 206.771 59.0293C207.755 61.4902 209.135 63.3658 210.911 64.6559C212.687 65.9461 214.763 66.5915 217.139 66.5915C218.891 66.5915 220.463 66.2332 221.855 65.5161C223.271 64.7995 224.435 63.7599 225.347 62.398C226.283 61.0125 226.895 59.3517 227.183 57.4161H241.656C241.416 61.6214 240.263 65.3249 238.199 68.527C236.159 71.7045 233.339 74.1896 229.739 75.9816C226.139 77.7736 221.879 78.6696 216.959 78.6696ZM251.475 77.5947V22.5436H266.343V32.1488H266.919C267.927 28.732 269.619 26.1516 271.995 24.4073C274.371 22.6392 277.107 21.7551 280.204 21.7551C280.971 21.7551 281.799 21.8029 282.687 21.8985C283.575 21.9941 284.356 22.1255 285.027 22.2928V35.8404C284.307 35.6254 283.311 35.4342 282.039 35.267C280.767 35.0997 279.603 35.0161 278.547 35.0161C276.291 35.0161 274.275 35.5059 272.499 36.4856C270.747 37.4413 269.355 38.7793 268.323 40.4996C267.315 42.22 266.811 44.2032 266.811 46.4491V77.5947H251.475ZM315.583 78.6696C309.895 78.6696 304.999 77.523 300.895 75.2291C296.814 72.9112 293.67 69.6378 291.463 65.409C289.254 61.1555 288.15 56.126 288.15 50.3199C288.15 44.6571 289.254 39.6873 291.463 35.4103C293.67 31.1334 296.779 27.8002 300.787 25.4108C304.819 23.0215 309.547 21.8268 314.971 21.8268C318.619 21.8268 322.015 22.4122 325.159 23.583C328.327 24.7298 331.087 26.4621 333.439 28.7799C335.816 31.0975 337.664 34.0125 338.984 37.5249C340.303 41.0133 340.963 45.0992 340.963 49.7823V53.9757H294.27V44.5138H326.527C326.527 42.3156 326.047 40.3683 325.087 38.6718C324.127 36.9753 322.795 35.6493 321.091 34.6935C319.411 33.7139 317.455 33.2241 315.223 33.2241C312.895 33.2241 310.831 33.7617 309.031 34.8369C307.255 35.8882 305.863 37.3098 304.855 39.1018C303.847 40.87 303.331 42.8412 303.306 45.0155V54.0116C303.306 56.7355 303.811 59.0887 304.819 61.0719C305.851 63.0551 307.303 64.5842 309.175 65.6596C311.047 66.735 313.267 67.2722 315.835 67.2722C317.539 67.2722 319.099 67.0333 320.515 66.5556C321.931 66.0779 323.143 65.3608 324.151 64.4053C325.159 63.4493 325.927 62.2786 326.455 60.8931L340.64 61.825C339.92 65.2178 338.444 68.1805 336.212 70.7132C334.003 73.2218 331.147 75.1815 327.643 76.5911C324.163 77.9766 320.143 78.6696 315.583 78.6696ZM371.348 78.4907C367.148 78.4907 363.344 77.4153 359.936 75.265C356.552 73.0906 353.864 69.9008 351.872 65.6955C349.904 61.4661 348.92 56.2813 348.92 50.1407C348.92 43.8328 349.94 38.5882 351.98 34.4068C354.02 30.2015 356.732 27.0595 360.116 24.9808C363.524 22.8781 367.256 21.8268 371.312 21.8268C374.408 21.8268 376.988 22.3525 379.052 23.4038C381.141 24.4312 382.82 25.7215 384.092 27.2745C385.388 28.8037 386.372 30.309 387.044 31.7904H387.512V4.19331H402.813V77.5947H387.692V68.7777H387.044C386.324 70.3067 385.304 71.824 383.984 73.3295C382.688 74.8108 380.996 76.0416 378.908 77.0211C376.844 78.0007 374.324 78.4907 371.348 78.4907ZM376.208 66.3403C378.68 66.3403 380.768 65.6714 382.473 64.3335C384.201 62.9716 385.52 61.0719 386.433 58.6351C387.369 56.1977 387.837 53.3426 387.837 50.069C387.837 46.7956 387.38 43.9523 386.469 41.539C385.556 39.1258 384.237 37.2621 382.508 35.9479C380.78 34.6338 378.68 33.9767 376.208 33.9767C373.688 33.9767 371.564 34.6577 369.836 36.0196C368.108 37.3816 366.8 39.2691 365.912 41.6824C365.024 44.0956 364.58 46.8912 364.58 50.069C364.58 53.2708 365.024 56.1024 365.912 58.5633C366.824 61.0002 368.132 62.9116 369.836 64.2977C371.564 65.6596 373.688 66.3403 376.208 66.3403ZM415.422 77.5947V22.5436H430.758V77.5947H415.422ZM423.126 15.4472C420.846 15.4472 418.89 14.6946 417.258 13.1893C415.65 11.6601 414.846 9.83219 414.846 7.70567C414.846 5.60303 415.65 3.79908 417.258 2.29379C418.89 0.764597 420.846 0 423.126 0C425.406 0 427.35 0.764597 428.958 2.29379C430.591 3.79908 431.406 5.60303 431.406 7.70567C431.406 9.83219 430.591 11.6601 428.958 13.1893C427.35 14.6946 425.406 15.4472 423.126 15.4472ZM472.456 22.5436V34.0125H439.155V22.5436H472.456ZM446.716 9.35436H462.052V60.6778C462.052 62.0874 462.268 63.1863 462.7 63.9753C463.132 64.7395 463.732 65.2772 464.5 65.5878C465.292 65.8985 466.204 66.0538 467.236 66.0538C467.956 66.0538 468.676 65.9943 469.396 65.8749C470.116 65.7314 470.668 65.6237 471.052 65.5519L473.465 76.9135C472.696 77.1523 471.616 77.4271 470.224 77.7377C468.832 78.0724 467.14 78.2754 465.148 78.3472C461.452 78.4907 458.212 78.0007 455.428 76.8776C452.668 75.7545 450.52 74.0102 448.984 71.6451C447.448 69.2795 446.692 66.2926 446.716 62.6851V9.35436Z" fill="#ffffff"/>
<path d="M217.273 157.131C211.441 157.131 206.437 155.937 202.261 153.547C198.109 151.158 194.916 147.837 192.684 143.583C190.452 139.306 189.336 134.36 189.336 128.745C189.336 123.106 190.452 118.16 192.684 113.908C194.94 109.631 198.145 106.298 202.297 103.908C206.473 101.519 211.453 100.324 217.237 100.324C222.349 100.324 226.801 101.244 230.593 103.084C234.409 104.923 237.385 107.528 239.521 110.897C241.681 114.242 242.821 118.173 242.941 122.689H226.489C226.153 119.869 225.193 117.659 223.609 116.058C222.049 114.457 220.009 113.657 217.489 113.657C215.449 113.657 213.66 114.23 212.125 115.377C210.589 116.5 209.389 118.173 208.525 120.395C207.684 122.593 207.265 125.317 207.265 128.567C207.265 131.816 207.684 134.564 208.525 136.809C209.389 139.032 210.589 140.716 212.125 141.863C213.66 142.986 215.449 143.547 217.489 143.547C219.121 143.547 220.561 143.201 221.809 142.508C223.081 141.815 224.125 140.8 224.941 139.462C225.757 138.1 226.273 136.451 226.489 134.516H242.941C242.773 139.056 241.633 143.022 239.521 146.415C237.433 149.808 234.493 152.448 230.701 154.335C226.933 156.199 222.457 157.131 217.273 157.131ZM267.539 157.023C264.01 157.023 260.878 156.438 258.142 155.267C255.43 154.073 253.282 152.281 251.699 149.891C250.139 147.478 249.358 144.456 249.358 140.824C249.358 137.765 249.899 135.185 250.978 133.082C252.059 130.98 253.547 129.271 255.442 127.957C257.339 126.643 259.523 125.651 261.995 124.983C264.467 124.29 267.107 123.824 269.915 123.585C273.059 123.298 275.591 122.999 277.511 122.689C279.431 122.354 280.823 121.888 281.687 121.291C282.575 120.67 283.019 119.797 283.019 118.675V118.495C283.019 116.656 282.383 115.234 281.111 114.23C279.839 113.227 278.123 112.725 275.963 112.725C273.635 112.725 271.763 113.227 270.347 114.23C268.931 115.234 268.031 116.62 267.647 118.388L251.41 117.814C251.89 114.469 253.126 111.483 255.118 108.854C257.135 106.202 259.894 104.123 263.399 102.618C266.927 101.089 271.163 100.324 276.107 100.324C279.635 100.324 282.887 100.742 285.863 101.579C288.839 102.391 291.431 103.586 293.639 105.163C295.847 106.715 297.551 108.627 298.752 110.897C299.975 113.167 300.588 115.76 300.588 118.675V156.092H284.027V148.422H283.595C282.611 150.285 281.351 151.863 279.815 153.153C278.303 154.443 276.515 155.411 274.451 156.056C272.411 156.701 270.107 157.023 267.539 157.023ZM272.975 145.555C274.871 145.555 276.575 145.172 278.087 144.408C279.623 143.643 280.847 142.592 281.759 141.254C282.671 139.892 283.127 138.315 283.127 136.523V131.29C282.623 131.553 282.011 131.792 281.291 132.007C280.595 132.222 279.827 132.425 278.987 132.617C278.147 132.808 277.283 132.975 276.395 133.118C275.507 133.261 274.655 133.393 273.839 133.513C272.183 133.775 270.767 134.181 269.591 134.731C268.439 135.28 267.551 135.997 266.927 136.881C266.327 137.741 266.027 138.769 266.027 139.963C266.027 141.78 266.674 143.166 267.971 144.121C269.291 145.077 270.959 145.555 272.975 145.555ZM328.956 124.695V156.092H311.352V101.041H328.092V111.148H328.704C329.928 107.779 332.016 105.139 334.968 103.227C337.92 101.292 341.436 100.324 345.516 100.324C349.405 100.324 352.776 101.196 355.633 102.94C358.513 104.661 360.745 107.074 362.329 110.18C363.937 113.263 364.728 116.87 364.705 121.004V156.092H347.1V124.445C347.124 121.386 346.344 118.997 344.76 117.277C343.2 115.556 341.028 114.696 338.244 114.696C336.396 114.696 334.764 115.102 333.348 115.915C331.956 116.703 330.876 117.838 330.108 119.319C329.364 120.801 328.98 122.593 328.956 124.695ZM391.192 157.023C387.664 157.023 384.532 156.438 381.796 155.267C379.084 154.073 376.936 152.281 375.352 149.891C373.792 147.478 373.012 144.456 373.012 140.824C373.012 137.765 373.552 135.185 374.632 133.082C375.712 130.98 377.2 129.271 379.096 127.957C380.992 126.643 383.176 125.651 385.648 124.983C388.12 124.29 390.76 123.824 393.568 123.585C396.712 123.298 399.244 122.999 401.164 122.689C403.084 122.354 404.476 121.888 405.34 121.291C406.229 120.67 406.672 119.797 406.672 118.675V118.495C406.672 116.656 406.037 115.234 404.764 114.23C403.493 113.227 401.776 112.725 399.617 112.725C397.288 112.725 395.416 113.227 394 114.23C392.584 115.234 391.684 116.62 391.3 118.388L375.064 117.814C375.544 114.469 376.78 111.483 378.772 108.854C380.788 106.202 383.548 104.123 387.052 102.618C390.58 101.089 394.816 100.324 399.76 100.324C403.289 100.324 406.541 100.742 409.517 101.579C412.493 102.391 415.085 103.586 417.293 105.163C419.501 106.715 421.205 108.627 422.405 110.897C423.629 113.167 424.241 115.76 424.241 118.675V156.092H407.681V148.422H407.249C406.265 150.285 405.005 151.863 403.468 153.153C401.957 154.443 400.168 155.411 398.104 156.056C396.064 156.701 393.76 157.023 391.192 157.023ZM396.628 145.555C398.524 145.555 400.228 145.172 401.74 144.408C403.276 143.643 404.501 142.592 405.413 141.254C406.324 139.892 406.781 138.315 406.781 136.523V131.29C406.277 131.553 405.664 131.792 404.944 132.007C404.248 132.222 403.481 132.425 402.64 132.617C401.801 132.808 400.936 132.975 400.048 133.118C399.16 133.261 398.308 133.393 397.492 133.513C395.836 133.775 394.42 134.181 393.244 134.731C392.092 135.28 391.204 135.997 390.58 136.881C389.98 137.741 389.68 138.769 389.68 139.963C389.68 141.78 390.328 143.166 391.624 144.121C392.944 145.077 394.612 145.555 396.628 145.555ZM435.005 156.092V101.041H452.106V111.076H452.681C453.689 107.444 455.333 104.745 457.614 102.976C459.894 101.184 462.546 100.288 465.57 100.288C466.386 100.288 467.226 100.348 468.09 100.468C468.954 100.563 469.758 100.718 470.502 100.933V116.166C469.662 115.879 468.558 115.652 467.19 115.485C465.846 115.317 464.645 115.234 463.589 115.234C461.502 115.234 459.618 115.7 457.938 116.631C456.282 117.539 454.973 118.818 454.014 120.467C453.078 122.091 452.61 124.002 452.61 126.201V156.092H435.005ZM490.122 176.736C488.01 176.736 486.018 176.568 484.146 176.234C482.274 175.924 480.666 175.505 479.322 174.98L483.21 162.256C484.938 162.83 486.498 163.164 487.89 163.26C489.306 163.355 490.518 163.128 491.526 162.579C492.558 162.053 493.35 161.109 493.902 159.747L494.586 158.099L474.93 101.041H493.362L503.55 140.322H504.127L514.459 101.041H532.999L512.155 161.36C511.146 164.371 509.719 167.023 507.871 169.317C506.047 171.635 503.682 173.45 500.778 174.765C497.899 176.079 494.346 176.736 490.122 176.736Z" fill="#FFD600"/>
<path d="M70.4013 157.962C109.283 157.962 140.803 126.582 140.803 87.8739C140.803 49.1655 109.283 17.7861 70.4013 17.7861C31.5198 17.7861 0 49.1655 0 87.8739C0 126.582 31.5198 157.962 70.4013 157.962Z" fill="#FFD600"/>
<path d="M129.548 29.23L123.101 60.3269L98.3125 35.649L129.548 29.23Z" fill="black"/>
        </svg>
