<?xml version="1.0" encoding="utf-8"?>
<!-- Generator: Adobe Illustrator 24.0.3, SVG Export Plug-In . SVG Version: 6.00 Build 0)  -->
<svg version="1.1" id="Layer_1" xmlns="http://www.w3.org/2000/svg" xmlns:xlink="http://www.w3.org/1999/xlink" x="0px" y="0px"
	 viewBox="0 0 200.4 36.1" style="enable-background:new 0 0 200.4 36.1;" xml:space="preserve">
<style type="text/css">
	.st0{fill:#FFFFFF;}
</style>
<g>
	<path class="st0" d="M137.2,30.6L137.2,30.6c-4.4,0-7.9-3.6-7.9-7.9c0-4.4,3.6-7.9,7.9-7.9h0c4.4,0,7.9,3.6,7.9,7.9
		C145.1,27.1,141.5,30.6,137.2,30.6 M137.2,9.6L137.2,9.6c-7.2,0-13.1,5.9-13.1,13.1c0,7.2,5.9,13.1,13.1,13.1h0
		c7.2,0,13.1-5.9,13.1-13.1C150.3,15.5,144.4,9.6,137.2,9.6"/>
	<path class="st0" d="M16.2,6.2c4.1,0,6.8,1.9,8.4,5.7c0.1,0.2,0.2,0.3,0.4,0.2l5.1-1.3c0.2,0,0.3-0.2,0.3-0.4
		c-1.7-6.4-6.8-10-14.1-10C11.7,0.4,7.9,1.9,4.7,5C1.6,8.1,0,12.4,0,17.9c0,5.5,1.6,9.8,4.7,12.9c3.1,3.1,7,4.7,11.5,4.7
		c7.3,0,12.4-3.6,14.1-10c0.1-0.2-0.1-0.4-0.3-0.4L25,23.7c-0.2,0-0.4,0-0.4,0.2c-1.5,3.8-4.3,5.7-8.4,5.7c-2.8,0-5.1-1-7-3
		c-1.8-2-2.7-4.9-2.7-8.7c0-3.8,0.9-6.7,2.7-8.7C11.1,7.2,13.5,6.2,16.2,6.2"/>
	<path class="st0" d="M68.6,21.9c-0.8-0.4-1.4-0.8-1.8-0.9l-2.1-0.7L63,19.6c-1.6-0.6-2.4-1.4-2.4-2.4c0-1.3,1-2.1,2.3-2.1
		c1.5,0,2.8,0.6,3.9,1.9c0.1,0.2,0.4,0.2,0.5,0l3.1-2.9c0.1-0.1,0.2-0.3,0.1-0.5C68.8,11.5,66,10,62.9,10c-2.3,0-4.2,0.7-5.7,2.1
		c-1.5,1.4-2.2,3.1-2.2,5.1c0,3.5,1.9,5.3,5,6.7c0.9,0.4,2.6,0.9,3.5,1.3c0.4,0.1,0.9,0.3,1.4,0.6c0.9,0.4,1.3,1.1,1.3,1.9
		c0,1.8-1,2.6-3,2.6c-2.2,0-3.8-1.2-4.8-3.7c-0.1-0.2-0.3-0.3-0.5-0.2l-4.2,2.2c-0.2,0.1-0.2,0.3-0.2,0.5c0.7,1.6,1.9,3.1,3.5,4.3
		c1.7,1.3,3.8,2,6.1,2c2.6,0,4.7-0.8,6.3-2.4c1.6-1.6,2.4-3.5,2.4-5.8c0-1.7-0.8-3.2-1.5-4C70,22.8,69.5,22.4,68.6,21.9"/>
	<path class="st0" d="M87.3,10c-3.2,0-5.7,1.3-7.5,3.9c-0.1,0.1-0.3,0.1-0.3-0.1v-13c0-0.2-0.2-0.4-0.4-0.4h-5.4
		c-0.2,0-0.4,0.2-0.4,0.4v34c0,0.2,0.2,0.4,0.4,0.4h5.4c0.2,0,0.4-0.2,0.4-0.4V24.6c0-6.2,2.6-9.5,5.8-9.5c2.4,0,3.7,1.5,3.7,4.4
		v15.1c0,0.2,0.2,0.4,0.4,0.4h5.4c0.2,0,0.4-0.2,0.4-0.4V17.4C95,12.5,92,10,87.3,10"/>
	<path class="st0" d="M121.9,0.4h-14.6c-5.3,0-8.5,2.9-8.5,8.7v1.3h-2c-0.2,0-0.4,0.2-0.4,0.4v4.5c0,0.2,0.2,0.4,0.4,0.4h2v19.1
		c0,0.2,0.2,0.4,0.4,0.4h5.4c0.2,0,0.4-0.2,0.4-0.4V15.5h7c0.2,0,0.4-0.2,0.4-0.4v-4.5c0-0.2-0.2-0.4-0.4-0.4h-7V8.6
		c0-2.1,0.9-3.1,2.8-3.1h8.9v29.1c0,0.2,0.2,0.4,0.4,0.4h5.4c0.2,0,0.4-0.2,0.4-0.4V1.1C122.6,0.7,122.3,0.4,121.9,0.4"/>
	<path class="st0" d="M183.1,10.4h-5.4c-0.2,0-0.3,0.1-0.3,0.3l-4.2,16c0,0.2-0.3,0.2-0.3,0l-3.9-16c0-0.2-0.2-0.3-0.3-0.3h-5.1
		c-0.2,0-0.3,0.1-0.3,0.3l-3.9,16c0,0.2-0.3,0.2-0.3,0l-4.2-16c0-0.2-0.2-0.3-0.3-0.3H149c-0.2,0-0.4,0.2-0.3,0.5l7.7,24
		c0,0.1,0.2,0.2,0.3,0.2h4.8c0.2,0,0.3-0.1,0.3-0.3l4.2-15.7l4.2,15.7c0,0.2,0.2,0.3,0.3,0.3h4.8c0.2,0,0.3-0.1,0.3-0.2l7.7-24
		C183.5,10.6,183.3,10.4,183.1,10.4"/>
	<path class="st0" d="M198.6,23.2c-0.3-0.4-0.9-0.8-1.8-1.3c-0.8-0.4-1.4-0.8-1.8-0.9l-2.1-0.7l-1.8-0.6c-1.6-0.6-2.4-1.4-2.4-2.4
		c0-1.3,1-2.1,2.3-2.1c1.5,0,2.8,0.6,3.9,1.9c0.1,0.2,0.4,0.2,0.5,0l3.1-2.9c0.1-0.1,0.2-0.3,0.1-0.5c-1.6-2.3-4.4-3.8-7.6-3.8
		c-2.3,0-4.2,0.7-5.7,2.1c-1.5,1.4-2.2,3.1-2.2,5.1c0,3.5,1.9,5.3,5,6.7c0.9,0.4,2.6,0.9,3.5,1.3c0.4,0.1,0.9,0.3,1.4,0.6
		c0.9,0.4,1.3,1.1,1.3,1.9c0,1.8-1,2.6-3,2.6c-2.2,0-3.8-1.2-4.8-3.7c-0.1-0.2-0.3-0.3-0.5-0.2l-4.2,2.2c-0.2,0.1-0.2,0.3-0.2,0.5
		c0.7,1.6,1.9,3.1,3.5,4.3c1.7,1.3,3.8,2,6.1,2c2.6,0,4.7-0.8,6.3-2.4c1.6-1.6,2.4-3.5,2.4-5.8C200.1,25.5,199.3,24,198.6,23.2"/>
	<path class="st0" d="M46.1,25.2c0,1.5-0.6,2.7-1.7,3.7c-1.2,0.9-2.5,1.4-4,1.4c-0.8,0-1.5-0.2-1.9-0.7c-0.4-0.5-0.7-1-0.7-1.7
		c0-2.1,1.4-3.2,4.2-3.2h4.1V25.2z M41.8,10c-2.5,0-4.6,0.6-6.3,1.9c-1.6,1.2-2.6,2.7-3.1,4.6c0,0.2,0.1,0.4,0.3,0.4l4.5,1
		c0.2,0,0.3-0.1,0.4-0.2c0.7-1.7,2.1-2.6,4.2-2.6c2.9,0,4.3,1.2,4.3,3.6v1.1H42c-3.1,0-5.7,0.7-7.6,2.2c-1.9,1.5-2.9,3.4-2.9,5.9
		c0,2.4,0.7,4.2,2.1,5.5c1.4,1.3,3.2,1.9,5.4,1.9c3.1,0,5.7-1.2,7.6-3.5l0.6,2.9c0,0.2,0.2,0.3,0.3,0.3h4.4c0.2,0,0.3-0.2,0.3-0.3
		V20.3C52.2,13.4,48.7,10,41.8,10"/>
</g>
</svg>
